<svg xmlns="http://www.w3.org/2000/svg" id="e564c5bd-8c0b-48a3-82c4-7da57bdf9e8c" data-name="New Layer" viewBox="0 0 1770 475.2"><defs><style>.e4139577-b32d-440c-8ae9-e2be27ab4f42{fill:#ed3738;}.a1e71e97-fe01-40da-932b-ef8444a40d0b,.b36a29d8-f9a4-42e1-830e-29f587b404c9,.e4139577-b32d-440c-8ae9-e2be27ab4f42{fill-rule:evenodd;}.b36a29d8-f9a4-42e1-830e-29f587b404c9{fill:#383637;}.a1e71e97-fe01-40da-932b-ef8444a40d0b{fill:#ed3538;}</style></defs><title>logo</title><path class="e4139577-b32d-440c-8ae9-e2be27ab4f42" d="M354.6,333.9l-8.2.7c-39.1,3.3-65.3,19.4-76.8,47.1-9.4,22.6-9.3,42.6.1,58.2a68.7,68.7,0,0,0,11.8,13.8c5.9,5.3,15.6,11.4,21.5,13.8,1.5.6,1.5.6.6,1.3a4.1,4.1,0,0,1-1.8.7c-1.7,0-14.7,4.8-20.2,7.4-14,6.7-20.6,13.8-22.7,24.7s2,21.4,11,27.5,18.7,8.8,34.9,10c32.1,2.5,53.5,5.5,80.8,11.6,11.3,2.5,13,2.6,14.8.5s1.7-1.9.5-4.8-1.2-2.5-8.3-4.6-22.4-5.7-42.3-9.7c-12.4-2.5-29.3-6.4-35.2-8-14.3-4.2-21.2-16.3-15.7-27.3a22.5,22.5,0,0,1,9.1-9c7.4-3.8,25.9-6.9,50.5-8.5,35.4-2.3,53.7-7.1,72.3-18.9,10.9-6.9,19.7-16.5,24.8-26.9,3.9-7.7,5.3-13.4,5.6-22.5a46.7,46.7,0,0,0-.8-13.3,100.4,100.4,0,0,0-7.3-22.8,38.7,38.7,0,0,1-2.5-6.6c0-.9,3.1-2.7,8.7-4.9,3-1.1,4.2-1.3,9.8-1.3H476l3.6,3.7a32.8,32.8,0,0,0,23.4,9.4c14.7.1,24.6-10.3,22-23.2-1.9-9.9-8.4-15.5-20-17.5-6-1.1-7.1-1.1-14.9,0-14.3,1.8-30.7,7.8-44.9,16.4a60.8,60.8,0,0,0-5.7,3.9c-1.3,1.2-1.4,1.2-8.1-3.3-12.9-8.8-29.3-14.6-46.8-16.6C378.1,334.1,358.2,333.4,354.6,333.9Zm17.6,17.9c18.8,2.6,29.8,12.2,34.5,30,1.7,6.5,2.3,12.4,2.3,22.3,0,20.1-4.9,35.1-14.8,45.5s-24.3,15-40.2,13.3c-7.4-.8-10.6-1.7-16.6-4.6-12.1-5.9-19.4-17.4-22-34.7-2.5-15.7,2-40.3,9.7-53.3,4.3-7.4,12.9-14.6,20.3-17S362.9,350.4,372.2,351.8Z" transform="translate(-75 -333.6)"></path><path class="b36a29d8-f9a4-42e1-830e-29f587b404c9" d="M672.8,418l-7.3,1.3c-31.7,5.9-53.6,31.4-61.9,72.1-6.3,30.7-5.2,69.1,2.7,96.5s22.6,46,43,55.6a81.6,81.6,0,0,0,17.8,5.5c6.3,1.3,23.6,1.3,30.1,0,24-4.9,39.9-17.7,49.7-40.4,5.8-13.6,9.7-31.9,11.1-53.1.6-8.6.7-31.5.2-36.8l-.3-3.5H719.3l-38.5.2-.2,22.4v22.3l1.6.4c.9.1,4.9.3,9,.3,8.5,0,7.6-.7,7.4,5.9a62,62,0,0,1-2.6,15.8c-2.6,6.9-7.3,10.3-14.3,10.3-11,0-16.4-8.5-18.8-29.2-2.6-22.7-1.7-60.2,1.9-76.4,1.8-8.7,5.9-14.9,11.3-17.2,2.3-1,3.3-1.2,7-1,5.5.3,9,2,12,5.8a66.1,66.1,0,0,1,7.1,13.8c.4,1.5.8,1.9,1.5,1.6l25.9-9c13.9-4.8,25.4-9,25.6-9.2s-1.5-6.7-5-14.1c-9.3-19.3-21-30.1-39.1-36.1-8.9-3-13.7-3.7-25.9-3.9C679.3,417.9,673.8,417.9,672.8,418Z" transform="translate(-75 -333.6)"></path><path class="b36a29d8-f9a4-42e1-830e-29f587b404c9" d="M839.9,418.3c-24.8,3.3-43.9,17.5-56,41.5-7,13.9-11.1,29-13.4,48.8-.7,6.3-.9,11.8-.9,26.4,0,16.4.1,19.4,1.2,27.2,3.9,29,11.4,48.2,25.4,64.5a76.9,76.9,0,0,0,20.7,16c4.1,2.1,12.6,4.8,18.8,6.1,8.3,1.6,23.8,1.6,31.6-.1,24.1-5.2,40.8-18.7,52.2-42.4s15.4-55.6,12.7-90.8c-1.6-22.4-5.8-39.6-13-54.4-11.4-23.3-28-36.9-51.3-41.9C862.2,418,846,417.5,839.9,418.3Zm17.9,55.1c6.7,2.9,10.3,10.9,12,26.1,2.3,19.6,2.1,50.3-.2,67.9s-7.5,25.4-18.1,25.5-16.2-7.5-18.8-26.1c-3.1-22.8-2-65.2,2.1-79.8C838.3,474.6,847.9,468.9,857.8,473.4Z" transform="translate(-75 -333.6)"></path><path class="b36a29d8-f9a4-42e1-830e-29f587b404c9" d="M1017.4,418c-19.2,2.8-30,7.8-41.9,19.2-14.5,13.8-23.8,33.9-28.4,60.9-3.7,22.1-3.5,54.2.5,75.6,7.2,37.9,25.9,63.3,53.1,72.4,9.1,3.1,14.1,3.8,26,3.8,10,0,11.2-.1,16.9-1.4,18.1-4.3,30.9-12.5,41.6-26.6s18.1-33.9,21.6-62c1.3-10.3,1.3-41.4,0-52.1-2.5-20.5-6.2-34-13.2-48-11.5-22.8-28.9-36.6-51.6-40.8C1037.7,418.2,1020.9,417.5,1017.4,418Zm14.8,54.9c5,1.7,9.1,7.6,11.1,16.2s2.7,17.8,3,37.7c.6,43-2.8,59.7-13,64.7a16.6,16.6,0,0,1-13.3.2c-5.1-2.5-8.6-7.7-10.5-16-4.5-19.2-4.6-65.6-.2-85.8C1012.4,475.7,1021,469.2,1032.2,472.9Z" transform="translate(-75 -333.6)"></path><path class="b36a29d8-f9a4-42e1-830e-29f587b404c9" d="M1625.6,418.2c-9.3,1.1-19.2,3.8-26.2,7.4-12.6,6.3-26.3,19.4-34.6,33-13.2,21.5-19.2,47.6-18.3,80,.6,25.7,4.6,43.8,13.4,61.6a85.7,85.7,0,0,0,16.4,23.2c13.1,13.6,27.3,21.6,44.7,25.4,7.4,1.6,21,1.6,28.3,0s18-5.2,19.5-6.5.7-8.2,1-28.1l.4-27.6-5.3,2.3c-10.5,4.6-20.3,5.7-28.1,3.1-5.2-1.8-7.6-3.2-11.2-6.8-5.7-5.7-9.4-12.8-12.1-23.2-3.9-14.9-4.4-35-1.5-52,4.2-24.3,14.9-37.1,32.4-38.7,6.4-.6,15.5,1.4,22.2,4.8a11.8,11.8,0,0,0,2.6,1c.3-.3.6-50,.3-51.4s-.8-2-10-4.4S1634.5,417.3,1625.6,418.2Z" transform="translate(-75 -333.6)"></path><path class="b36a29d8-f9a4-42e1-830e-29f587b404c9" d="M1127,534V645.6l36.4-.2c31.3-.1,37-.3,41.4-1a88.2,88.2,0,0,0,25.3-7.8c22-10.5,35.7-28.6,43-56.7,4-15.6,6-38.9,4.9-57.4-2-31.4-8.7-53.5-21.2-69.7a108.8,108.8,0,0,0-15.4-14.6,77.7,77.7,0,0,0-29.5-12.8c-11.7-2.5-15.1-2.7-50.9-2.9l-34-.3Zm69.2-57.5c11.8,2.7,16.6,11,19.2,32.4,1.1,8.8.9,41.2-.3,49.4-2.9,21.5-8.2,28.9-21.7,30.7a9.5,9.5,0,0,1-4.2,0l-1.1-.3V532.5c0-30.9.1-56.3.3-56.4S1192.8,475.7,1196.2,476.5Z" transform="translate(-75 -333.6)"></path><path class="b36a29d8-f9a4-42e1-830e-29f587b404c9" d="M1295.4,534V645.6h30.4l30.4-.2.2-42.1c.2-33.8.4-41.8.9-40.9s2.5,6.9,4.7,14.1,6.4,20.1,9.2,28.9,6.9,21.4,9,28.1l4,12.2h2.9c7,.1,61.4-.1,61.6-.2s-1.3-3.3-2.9-7.1c-15.7-35.2-39.6-90.6-39.5-91.2s2.2-1.8,4.6-3.1c13.3-7.3,22.1-16.5,27.1-28.5,7.2-17.3,5.8-41.4-3.2-58.5s-26.3-28.8-49.6-33.4c-3.8-.8-9.7-1-47.1-1.1l-42.7-.2Zm71.6-64.2c6.8,2,11,7.8,12.8,17.7a44.8,44.8,0,0,1-1.8,22.2,16.9,16.9,0,0,1-8.7,9.3c-3.4,1.5-10.8,3.2-12.1,2.7s-.8-3.2-.8-26.4c0-14.4.2-26.3.4-26.5S1363.9,468.9,1367,469.8Z" transform="translate(-75 -333.6)"></path><path class="b36a29d8-f9a4-42e1-830e-29f587b404c9" d="M1464.8,520.5c0,104.8.2,124.9,1.1,125.2h59.9V422.3h-61Z" transform="translate(-75 -333.6)"></path><path class="b36a29d8-f9a4-42e1-830e-29f587b404c9" d="M1689.1,534V645.6h59.5c1,0,1-.4.6-7.4-.1-4-.1-23.6,0-43.6l.4-36.3h26.5v87.3h30.3l30.3-.2V422.6h-60.3l-.2,39.9v39.8l-11.7.2c-6.4.1-12.4.1-13.3,0l-1.6-.2v-80H1689Z" transform="translate(-75 -333.6)"></path><path class="e4139577-b32d-440c-8ae9-e2be27ab4f42" d="M176.3,553.3c-4.3,1.5-22.2,10.5-28.8,14.5-14.5,8.9-23.6,15.9-34.9,27.2-5.1,5.1-10.8,11.2-12.6,13.6-16,20.7-24.1,41.6-24.9,64.2-1,25.8,6.4,48.8,23.1,72.1,12.2,16.9,31,34.3,50.4,46.5,13.1,8.3,31.3,17.4,34.8,17.4s5.4-5,4.8-7.8c-.3-1-1.4-1.9-4.6-3.5-22.2-11.4-35.8-23-46.7-39.8-13.8-21-20.4-47-20.4-79.9,0-17.9,1.3-29.7,4.9-43.2a96.1,96.1,0,0,1,8.4-22.6c10-20,24.2-33.5,48.5-46.2,3.7-1.9,7-3.8,7.4-4.1s-2.7-9.6-5.4-9.5A20.8,20.8,0,0,0,176.3,553.3Z" transform="translate(-75 -333.6)"></path><path class="e4139577-b32d-440c-8ae9-e2be27ab4f42" d="M418.3,553.5c-1.9,1.6-3.6,4.7-3.6,6.5s.7,2.3,8.4,6.3c15.1,7.9,25.6,15.7,34.3,25.6,17.2,19.7,25.8,45.3,26.9,79.6,1.1,39.1-7.6,70.8-26.2,94.1-9.7,12.2-20.4,20.8-37.3,29.8a50.2,50.2,0,0,0-7.7,4.7c-1.6,1.7.1,6.7,2.7,8.4s31.7-13.1,47.9-25.1c18.2-13.6,34.8-31,44.2-46.5,17.4-28.7,22.2-57.9,14.2-87.2s-32.4-59.3-66.1-80.1c-11.2-6.8-30.1-16.3-34.5-17.2C420.3,552.2,419.6,552.4,418.3,553.5Z" transform="translate(-75 -333.6)"></path><path class="b36a29d8-f9a4-42e1-830e-29f587b404c9" d="M399.1,636.4c-5.8.9-12.3,5.8-14.9,11.3-5,10.9-1.2,22.5,9.4,28.2,3.2,1.7,3.6,1.8,8.7,1.8s5.8-.2,8.4-1.4,7.2-5,8.4-7.2a10.5,10.5,0,0,0,.7-1.6,14.4,14.4,0,0,0-2.9-.3c-2.3,0-3.2.2-4.5,1.2-3.5,2.6-6.5,3.9-9.5,3.9a14,14,0,0,1-10.1-3.9c-6.5-6.4-6.5-15.9.1-22.4,3-3.1,6.3-4.2,10.7-3.9s6.6,1.6,8.5,3.7,1.7,1.3,4.8,1.3h3.5l-1-1.6c-1.5-2.5-5.6-6-8.7-7.5A23.8,23.8,0,0,0,399.1,636.4Z" transform="translate(-75 -333.6)"></path><path class="b36a29d8-f9a4-42e1-830e-29f587b404c9" d="M161.3,637.3a21,21,0,0,0-12,28.6,23.6,23.6,0,0,0,10.1,10.4c2.7,1.2,3.6,1.4,8.5,1.4s5.5-.1,8.8-1.8c5.3-2.7,10-8.8,10.9-14.2a26.3,26.3,0,0,1,.6-3.4l.2-1.4h-25v5.2h8.9c6.9.1,8.8.3,8.8.8s-3.4,5.3-5.5,6.7a13.1,13.1,0,0,1-9.1,2.2c-5.5-.4-9.3-3.3-11.9-9-1.1-2.3-1.3-3.3-1.1-6.6.4-8,5.5-13.8,12.9-14.4a13.4,13.4,0,0,1,10.2,3c2.5,1.9,3,2,6,2h3.3l-1.1-1.6a23.5,23.5,0,0,0-8.2-7.5C172.7,636.2,165.3,635.8,161.3,637.3Z" transform="translate(-75 -333.6)"></path><path class="b36a29d8-f9a4-42e1-830e-29f587b404c9" d="M209.3,637.1a23.5,23.5,0,0,0-12.7,11.5c-1.2,2.6-1.3,3.5-1.3,8.5s.1,5.9,1.6,9.1c6.4,12.9,22.8,15.7,32.9,5.5a19,19,0,0,0,5.5-9.7c2.7-10.2-3.6-21.4-13.8-24.8C218.5,636.2,211.9,636.1,209.3,637.1Zm12.6,6.5c5.1,2.7,8.4,8.9,7.9,15.1a13.8,13.8,0,0,1-4.4,9.2c-7.1,7.2-18.2,5.3-23.1-4.1-1.9-3.5-1.9-9-.2-12.9A18.3,18.3,0,0,1,210,643C213.2,641.5,218.5,641.8,221.9,643.6Z" transform="translate(-75 -333.6)"></path><path class="b36a29d8-f9a4-42e1-830e-29f587b404c9" d="M256.3,637.3c-12,4.2-17.6,19.3-11.3,30a22.7,22.7,0,0,0,9.3,8.6c3.4,1.7,3.9,1.8,8.7,1.7s5.4-.1,8.6-1.6a24.2,24.2,0,0,0,10.1-10.4c1.2-2.5,1.3-3.5,1.3-8.5s-.1-5.9-1.4-8.5a23.7,23.7,0,0,0-10-10.3c-2.9-1.4-4-1.7-8-1.8A16.6,16.6,0,0,0,256.3,637.3Zm11.5,5.5c5.6,1.8,9.4,7.7,9.4,14.3,0,16.2-20.7,21-27.5,6.3a15.9,15.9,0,0,1-.3-12.1c1.8-3.9,5.4-7.5,9-8.7A17.7,17.7,0,0,1,267.8,642.8Z" transform="translate(-75 -333.6)"></path><path class="b36a29d8-f9a4-42e1-830e-29f587b404c9" d="M291.9,637.2c-.3.2-.4,9.2-.4,20,0,18.4,0,19.7.9,19.7,2.7.2,15.5-.1,17.1-.4,4.9-.8,10.9-5.6,13.4-10.8,1-2,1.1-3.3,1.2-8.6s-.1-6.2-1.7-9.2c-3.2-6.4-7.8-9.5-15.2-10.5C302.8,636.8,292.4,636.7,291.9,637.2Zm19,6.6c5.1,2.1,8.1,8,7.7,14.8-.3,4.3-1.4,7-4.1,9.6s-5.7,3.6-12.1,3.6h-5.3V642.4l5.8.2C306.8,642.8,309.4,643.2,310.9,643.8Z" transform="translate(-75 -333.6)"></path><path class="b36a29d8-f9a4-42e1-830e-29f587b404c9" d="M333.5,637.1c-.3.3-.4,9.3-.4,20.1v19.7l1.2.3c1.8.4,4.2.1,4.2-.7s.1-4.4.2-9.1.2-8.5.4-8.5a17.6,17.6,0,0,1,2.9,4l6.3,8.9c3.6,4.8,3.8,4.9,6.1,5.3s4.5.4,4.2-.4-2.5-3.8-5.2-7.5-4.8-7-4.7-7.2a5.6,5.6,0,0,1,2.2-1c5-1.4,7.9-4.9,8.2-10a18.6,18.6,0,0,0-.4-5.4,12.5,12.5,0,0,0-7.1-7.5C349,637.3,334.1,636.4,333.5,637.1Zm16.9,6.4c2,1.1,3.2,3.6,3.2,6.8s-.2,3-1.4,4.3-4.3,2.8-9.2,3.1l-4.3.4v-7.7c0-4.3.1-7.8.2-7.9S349.3,642.9,350.4,643.5Z" transform="translate(-75 -333.6)"></path><path class="b36a29d8-f9a4-42e1-830e-29f587b404c9" d="M368.2,637.5c-.1.3-.2,9.4-.1,20.1v19.5h5.2v-40h-2.5C369.2,636.9,368.4,637,368.2,637.5Z" transform="translate(-75 -333.6)"></path><path class="b36a29d8-f9a4-42e1-830e-29f587b404c9" d="M429.5,657.1v20.3h5.2v-6.8a81.7,81.7,0,0,1,.3-8.7l.3-1.9h16.3v8.5l.2,8.6,2.7.2,2.7.2V636.8l-2.7.2h-2.7l-.2,8.2c-.1,4.5-.3,8.3-.4,8.4s-14.8.7-15.5.2-.7-2.7-.9-8.6l-.3-8.2h-2.5l-2.6-.2Z" transform="translate(-75 -333.6)"></path><path class="b36a29d8-f9a4-42e1-830e-29f587b404c9" d="M147.5,687.6a9.4,9.4,0,0,0-.2,2.5v2.2h310V690a4.5,4.5,0,0,0-.4-2.4C455.4,687.5,147.7,687.4,147.5,687.6Z" transform="translate(-75 -333.6)"></path><path class="a1e71e97-fe01-40da-932b-ef8444a40d0b" d="M606.5,688.5l-2.4.2.3,17.9c.1,9.8.4,17.9.5,18s279.2.3,620.2.4H1845V688.4H606.5Z" transform="translate(-75 -333.6)"></path></svg>